<?xml version="1.0" standalone="no"?>
<!DOCTYPE svg PUBLIC "-//W3C//DTD SVG 20010904//EN"
 "http://www.w3.org/TR/2001/REC-SVG-20010904/DTD/svg10.dtd">
<svg version="1.0" xmlns="http://www.w3.org/2000/svg"
 width="5726.000000pt" height="5726.000000pt" viewBox="0 0 5726.000000 5726.000000"
 preserveAspectRatio="xMidYMid meet">
<metadata>
Created by potrace 1.14, written by Peter Selinger 2001-2017
</metadata>
<g transform="translate(0.000000,5726.000000) scale(0.100000,-0.100000)"
fill="#000000" stroke="none">
<path d="M630 28640 c0 -25915 1 -28620 16 -28620 8 0 12 -5 9 -11 -4 -6 2 -5
14 3 17 11 25 11 42 0 12 -8 18 -9 14 -3 -9 15 18 14 34 -2 11 -9 13 -9 7 1
-9 16 16 16 33 -1 11 -9 13 -9 7 1 -9 16 16 16 33 -1 11 -9 13 -9 7 1 -4 7 -2
12 6 12 8 0 20 -6 27 -12 11 -10 13 -10 7 0 -4 7 -2 12 6 12 8 0 20 -6 27 -12
11 -10 13 -10 7 0 -4 7 -2 12 6 12 8 0 20 -6 27 -12 11 -10 13 -10 7 -1 -10
17 35 17 53 0 11 -10 12 -9 7 1 -9 15 29 13 53 -2 10 -6 12 -5 7 2 -10 16 36
16 53 -1 11 -10 12 -9 7 1 -9 15 29 13 53 -2 10 -6 12 -5 7 2 -10 16 36 16 53
-1 11 -10 12 -9 7 1 -9 15 29 13 53 -2 10 -6 12 -5 7 2 -10 16 36 16 53 -1 11
-10 12 -9 7 1 -9 15 29 13 53 -2 9 -6 12 -5 8 1 -10 15 173 16 192 0 12 -9 13
-9 7 1 -10 16 16 16 33 0 11 -11 13 -10 7 0 -9 16 16 16 33 -1 11 -9 13 -9 7
1 -9 16 16 16 33 -1 11 -9 13 -9 7 1 -9 16 16 16 33 0 11 -11 13 -10 7 0 -9
16 16 16 33 0 11 -10 13 -10 7 0 -4 7 -2 12 6 12 8 0 20 -6 27 -12 11 -11 12
-10 7 0 -9 15 29 13 53 -2 10 -6 12 -5 7 3 -9 14 30 11 53 -3 10 -6 12 -5 7 2
-10 16 36 16 53 0 11 -11 12 -10 7 0 -9 15 29 13 53 -2 10 -6 12 -5 7 2 -10
16 36 16 53 -1 11 -9 12 -9 7 0 -8 14 50 13 73 -1 10 -6 12 -5 7 3 -9 14 30
11 53 -3 10 -6 12 -5 7 2 -10 16 36 16 53 -1 11 -10 12 -9 7 1 -9 15 29 13 53
-2 10 -6 12 -5 7 2 -10 16 36 16 53 -1 8 -6 11 -7 8 -1 -4 7 19 11 74 12 61 1
78 -1 73 -11 -5 -9 -4 -9 7 0 7 7 25 13 39 13 14 0 32 -6 39 -13 11 -10 12 -9
7 1 -9 15 29 13 53 -2 10 -6 12 -5 7 2 -10 16 36 16 53 -1 11 -10 12 -9 7 1
-9 15 29 13 53 -2 10 -6 12 -5 7 2 -10 16 36 16 53 -1 11 -10 12 -9 7 1 -9 15
29 13 53 -2 10 -6 12 -5 7 2 -10 16 36 16 53 0 11 -11 12 -10 7 0 -9 15 29 13
53 -2 10 -6 12 -5 7 2 -10 17 76 16 93 -1 11 -10 12 -9 7 1 -9 15 29 13 53 -2
10 -6 12 -5 7 2 -10 16 36 16 53 -1 11 -10 12 -9 7 1 -9 15 29 13 53 -2 10 -6
12 -5 7 2 -10 16 36 16 53 -1 11 -10 12 -9 7 1 -9 15 29 13 53 -2 10 -6 12 -5
7 2 -10 16 36 16 53 0 11 -11 12 -10 7 0 -9 15 29 13 53 -2 9 -6 12 -5 8 1 -4
6 14 11 44 12 38 1 49 -2 43 -11 -6 -11 -5 -11 8 0 18 15 116 13 137 -2 11 -8
13 -8 7 2 -10 16 35 16 53 0 11 -11 12 -10 7 0 -9 15 29 13 53 -2 10 -6 12 -5
7 2 -10 16 36 16 53 0 11 -10 12 -10 7 -1 -8 14 50 13 73 -1 10 -6 12 -5 7 3
-9 14 30 11 53 -3 10 -6 12 -5 7 2 -10 16 36 16 53 0 11 -11 12 -10 7 0 -9 15
29 13 53 -2 10 -6 12 -5 7 2 -10 16 36 16 53 0 11 -11 12 -10 7 0 -9 15 29 13
53 -2 10 -6 12 -5 7 2 -10 16 16 15 33 0 11 -10 13 -10 7 0 -9 16 16 16 33 -1
11 -9 13 -9 7 1 -9 16 16 16 33 0 11 -11 13 -11 7 0 -4 7 -2 12 6 12 8 0 20
-6 27 -12 11 -10 13 -10 7 0 -4 7 -2 12 6 12 8 0 20 -6 27 -12 11 -10 13 -10
7 0 -9 16 16 16 33 -1 11 -9 13 -9 7 1 -9 16 16 16 33 0 11 -10 13 -10 7 0 -9
16 16 16 33 0 8 -7 11 -8 8 -2 -4 7 11 11 44 13 38 1 49 -2 43 -11 -6 -10 -4
-11 7 -1 17 17 61 17 78 1 11 -11 12 -10 7 0 -9 15 29 13 53 -2 10 -6 12 -5 7
2 -10 16 36 16 53 -1 11 -10 12 -9 7 1 -9 15 29 13 53 -2 10 -6 12 -5 7 2 -10
16 36 16 53 0 11 -11 12 -10 7 0 -9 15 29 13 53 -2 10 -6 12 -5 7 2 -10 16 36
16 53 0 11 -11 12 -10 7 0 -9 15 29 13 53 -2 9 -6 12 -5 8 1 -9 14 54 14 72 0
12 -9 13 -9 7 1 -10 16 16 16 33 0 11 -11 13 -11 7 0 -9 16 16 16 33 0 11 -11
13 -10 7 0 -9 16 16 16 33 -1 11 -9 13 -9 7 1 -4 7 -2 12 6 12 8 0 20 -6 27
-12 11 -10 13 -10 7 0 -9 16 16 16 33 0 11 -10 13 -10 7 0 -4 7 -2 12 6 12 8
0 20 -6 27 -12 8 -7 11 -8 8 -2 -5 8 10 12 44 13 37 0 48 -2 43 -12 -6 -9 -4
-9 8 1 18 15 116 13 137 -2 11 -8 13 -8 7 2 -10 16 35 16 53 0 11 -10 12 -10
7 -1 -8 14 50 13 73 -1 10 -6 12 -5 7 3 -9 14 30 11 53 -3 10 -6 12 -5 7 2
-10 16 36 16 53 0 11 -11 12 -10 7 0 -9 15 29 13 53 -2 10 -6 12 -5 7 2 -10
16 36 16 53 0 11 -11 12 -10 7 0 -9 15 29 13 53 -2 10 -6 12 -5 7 2 -10 16 36
16 53 0 11 -11 12 -10 7 0 -9 15 29 13 53 -2 9 -6 12 -5 8 1 -4 6 14 11 44 12
38 1 49 -2 43 -11 -6 -10 -4 -11 7 0 17 16 61 16 78 -1 11 -10 12 -9 7 1 -9
15 29 13 53 -2 10 -6 12 -5 7 2 -10 16 36 16 53 0 11 -11 12 -10 7 0 -9 15 29
13 53 -2 10 -6 12 -5 7 2 -10 16 36 16 53 0 11 -11 12 -10 7 0 -9 15 29 13 53
-2 9 -6 12 -5 7 2 -4 7 16 11 64 11 52 0 69 -3 64 -12 -5 -9 -3 -8 7 1 17 16
61 16 78 -1 11 -10 12 -9 7 1 -9 15 29 13 53 -2 10 -6 12 -5 7 2 -10 16 36 16
53 0 11 -11 12 -10 7 0 -9 15 29 13 53 -2 10 -6 12 -5 7 2 -10 16 36 16 53 -1
11 -10 12 -9 7 1 -9 15 29 13 53 -2 10 -6 12 -5 7 2 -10 16 36 16 53 -1 11
-10 12 -9 7 1 -9 15 29 13 53 -2 10 -6 12 -5 7 2 -5 9 8 12 44 12 38 0 49 -3
44 -12 -6 -10 -4 -10 8 0 18 15 116 13 137 -2 11 -8 13 -8 7 2 -10 16 35 16
53 -1 11 -9 12 -9 7 0 -8 14 50 13 73 -1 10 -6 12 -5 7 3 -9 14 30 11 53 -3
10 -6 12 -5 7 2 -10 16 36 16 53 -1 11 -10 12 -9 7 1 -9 15 29 13 53 -2 10 -6
12 -5 7 2 -10 16 36 16 53 -1 11 -10 12 -9 7 1 -9 15 29 13 53 -2 10 -6 12 -5
7 2 -10 16 16 15 33 0 11 -10 13 -10 7 0 -9 16 16 16 33 -1 11 -9 13 -9 7 1
-9 16 16 16 33 -1 11 -9 13 -9 7 1 -9 16 16 16 33 -1 11 -9 13 -9 7 1 -9 16
16 16 33 -1 11 -9 13 -9 7 1 -9 16 16 16 33 -1 11 -9 13 -9 7 1 -9 16 16 16
33 -1 11 -9 13 -9 7 1 -9 16 16 16 33 -1 11 -9 13 -9 7 1 -10 16 35 16 53 -1
11 -10 12 -9 7 1 -9 15 29 13 53 -2 9 -6 12 -5 8 1 -4 6 14 11 44 12 38 1 49
-2 43 -11 -6 -10 -4 -10 8 0 18 14 113 13 137 -2 10 -6 12 -5 7 2 -10 16 36
16 53 -1 11 -10 12 -9 7 1 -9 15 29 13 53 -2 9 -6 12 -5 8 1 -4 6 14 11 44 12
38 1 49 -2 43 -11 -6 -10 -4 -11 7 -1 17 17 81 17 98 0 11 -9 13 -9 7 1 -9 16
16 16 33 -1 11 -9 13 -9 7 1 -9 16 16 16 33 -1 11 -9 13 -9 7 1 -9 16 16 16
33 -1 11 -9 13 -9 7 1 -9 16 16 16 33 -1 11 -9 13 -9 7 1 -9 16 16 16 33 -1
11 -9 13 -9 7 1 -9 16 16 16 33 -1 11 -10 12 -9 7 1 -9 15 29 13 53 -2 10 -6
12 -5 7 3 -9 14 30 11 53 -3 10 -6 12 -5 7 2 -10 16 36 16 53 -1 11 -10 12 -9
7 1 -9 15 29 13 53 -2 10 -6 12 -5 7 2 -10 16 36 16 53 -1 11 -9 12 -9 7 0 -8
14 50 13 73 -1 10 -6 12 -5 7 3 -9 14 30 11 53 -3 10 -6 12 -5 7 2 -10 16 36
16 53 -1 11 -10 12 -9 7 1 -9 15 29 13 53 -2 10 -6 12 -5 7 2 -10 16 36 16 53
-1 10 -8 12 -8 7 0 -8 15 33 14 53 -1 11 -8 13 -8 7 2 -10 16 16 16 33 -1 11
-9 13 -9 7 1 -9 16 16 16 33 -1 11 -9 13 -9 7 1 -9 16 16 16 33 -1 11 -9 13
-9 7 1 -9 16 16 16 33 -1 11 -9 13 -9 7 1 -9 16 16 16 33 -1 11 -9 13 -9 7 1
-9 16 16 16 33 -1 11 -9 13 -9 7 1 -9 16 16 16 33 -1 11 -9 13 -9 7 1 -9 16
16 16 33 -1 11 -9 13 -9 7 1 -10 16 35 16 53 -1 11 -10 12 -9 7 1 -9 15 29 13
53 -2 9 -6 12 -5 8 1 -10 15 153 15 172 0 9 -8 12 -8 8 -1 -9 16 92 17 112 1
12 -10 13 -9 7 1 -6 9 -1 12 16 10 12 -2 29 -7 37 -12 10 -6 12 -5 7 2 -10 16
36 16 53 -1 11 -10 12 -9 7 1 -9 15 29 13 53 -2 10 -6 12 -5 7 2 -5 8 3 12 24
12 20 0 29 -4 25 -11 -4 -6 2 -5 14 3 17 11 25 11 42 0 12 -8 18 -9 14 -3 -9
15 18 14 34 -2 11 -9 13 -9 7 1 -9 16 16 16 33 -1 11 -9 13 -9 7 1 -9 16 16
16 33 -1 11 -9 13 -9 7 1 -9 16 16 16 33 -1 11 -9 13 -9 7 1 -9 16 16 16 33
-1 11 -9 13 -9 7 1 -9 16 16 16 33 -1 11 -9 13 -9 7 1 -9 16 16 16 33 -1 11
-9 13 -9 7 1 -9 16 16 16 33 -1 11 -9 13 -9 7 1 -9 16 16 16 33 -1 8 -7 11 -7
8 -1 -5 8 7 12 33 12 28 1 38 -3 34 -11 -5 -8 -3 -8 7 0 16 16 63 17 54 2 -4
-6 2 -5 14 3 17 11 25 11 42 0 12 -8 18 -9 14 -3 -9 15 38 14 54 -2 11 -10 12
-9 7 1 -9 15 29 13 53 -2 10 -6 12 -5 7 2 -10 16 36 16 53 -1 11 -10 12 -9 7
1 -9 15 29 13 53 -2 10 -6 12 -5 7 2 -10 16 36 16 53 -1 11 -10 12 -9 7 1 -9
15 29 13 53 -2 10 -6 12 -5 7 2 -10 16 36 16 53 -1 11 -10 12 -9 7 1 -9 15 29
13 53 -2 9 -6 12 -5 8 1 -4 6 14 11 44 12 38 1 49 -2 43 -11 -6 -10 -4 -11 7
-1 7 7 29 13 49 13 20 0 42 -6 49 -13 11 -9 13 -9 7 1 -9 16 16 16 33 -1 11
-9 13 -9 7 1 -9 16 16 16 33 -1 11 -9 13 -9 7 1 -9 16 16 16 33 -1 11 -9 13
-9 7 1 -9 16 16 16 33 -1 11 -9 13 -9 7 1 -9 16 16 16 33 -1 11 -9 13 -9 7 1
-9 16 16 16 33 -1 11 -9 13 -9 7 1 -9 16 16 16 33 -1 11 -9 13 -9 7 1 -9 16
16 16 33 -1 11 -9 13 -9 7 1 -9 16 16 16 33 -1 11 -9 13 -9 7 1 -9 16 16 16
33 -1 11 -9 13 -9 7 1 -9 16 16 16 33 -1 11 -9 13 -9 7 1 -9 16 16 16 33 -1
11 -9 13 -9 7 1 -9 16 16 16 33 -1 11 -9 13 -9 7 1 -9 16 16 16 33 -1 11 -9
13 -9 7 1 -9 16 16 16 33 -1 11 -9 13 -9 7 1 -10 16 35 16 53 -1 11 -10 12 -9
7 1 -9 15 29 13 53 -2 10 -6 12 -5 7 2 -10 16 36 16 53 -1 11 -10 12 -9 7 1
-9 15 29 13 53 -2 10 -6 12 -5 7 2 -10 16 36 16 53 -1 11 -10 12 -9 7 1 -9 15
29 13 53 -2 10 -6 12 -5 7 2 -10 16 36 16 53 -1 11 -10 12 -9 7 1 -9 15 29 13
53 -2 10 -6 12 -5 7 2 -10 16 36 16 53 -1 11 -10 12 -9 7 1 -9 15 29 13 53 -2
10 -6 12 -5 7 2 -10 17 56 16 73 -1 11 -9 13 -9 7 1 -4 7 -2 12 6 12 8 0 20
-6 27 -12 11 -10 13 -10 7 0 -9 16 16 16 33 -1 11 -9 13 -9 7 1 -4 7 -2 12 6
12 8 0 20 -6 27 -12 9 -8 11 -9 7 -1 -4 8 9 11 44 11 32 1 48 -3 44 -9 -3 -6
3 -5 15 3 17 11 25 11 42 0 12 -8 18 -9 14 -3 -9 15 18 14 34 -1 11 -10 13
-10 7 0 -9 16 16 16 33 0 11 -10 13 -10 7 0 -4 7 -2 12 6 12 8 0 20 -6 27 -12
11 -11 13 -10 7 0 -9 16 16 16 33 -1 11 -9 13 -9 7 1 -4 7 -2 12 6 12 8 0 20
-6 27 -12 11 -10 13 -10 7 0 -9 16 16 16 33 -1 11 -9 13 -9 7 1 -4 7 -2 12 6
12 8 0 20 -6 27 -12 11 -10 13 -10 7 0 -9 16 16 16 33 -1 11 -9 13 -9 7 1 -10
16 35 16 53 -1 11 -10 12 -9 7 1 -9 15 29 13 53 -2 9 -6 12 -5 8 1 -10 15 153
15 172 0 12 -9 13 -9 7 1 -5 8 0 12 14 12 14 0 19 -4 14 -12 -6 -10 -4 -10 8
0 18 15 116 13 137 -2 11 -8 13 -8 7 2 -10 16 35 16 53 0 11 -11 12 -10 7 0
-9 15 29 13 53 -2 10 -6 12 -5 7 2 -5 8 3 12 24 12 20 0 29 -4 25 -11 -4 -6 2
-5 14 3 17 11 25 11 42 0 12 -8 18 -9 14 -3 -9 15 18 14 34 -1 11 -11 13 -11
7 0 -9 16 16 16 33 0 11 -11 13 -10 7 0 -4 7 -2 12 6 12 8 0 20 -6 27 -12 11
-11 13 -11 7 0 -9 16 16 16 33 0 11 -10 13 -10 7 0 -9 16 16 16 33 0 11 -11
12 -10 7 0 -9 15 29 13 53 -2 10 -6 12 -5 7 3 -9 14 30 11 53 -3 10 -6 12 -5
7 2 -10 16 36 16 53 -1 11 -10 12 -9 7 1 -9 15 29 13 53 -2 10 -6 12 -5 7 2
-10 16 36 16 53 0 11 -10 12 -10 7 -1 -8 14 50 13 73 -1 10 -6 12 -5 7 3 -9
14 30 11 53 -3 9 -6 12 -5 8 1 -4 6 14 11 44 12 38 1 49 -2 43 -11 -6 -10 -5
-10 7 -1 17 14 161 14 152 0 -3 -5 4 -3 16 5 17 11 25 11 42 0 12 -8 18 -9 14
-3 -9 15 18 14 34 -1 11 -11 13 -10 7 0 -9 16 16 16 33 -1 11 -9 13 -9 7 1 -4
7 -2 12 6 12 8 0 20 -6 27 -12 11 -10 13 -10 7 0 -4 7 -2 12 6 12 8 0 20 -6
27 -12 11 -10 13 -10 7 0 -9 16 16 16 33 0 11 -10 13 -10 7 0 -4 7 -2 12 6 12
8 0 20 -6 27 -12 11 -11 13 -10 7 0 -10 16 35 16 53 -1 11 -10 12 -9 7 1 -9
15 29 13 53 -2 10 -6 12 -5 7 2 -10 16 36 16 53 0 11 -11 12 -10 7 0 -9 15 29
13 53 -2 10 -6 12 -5 7 2 -10 16 36 16 53 0 11 -11 12 -10 7 0 -9 15 29 13 53
-2 10 -6 12 -5 7 2 -10 16 36 16 53 0 11 -11 12 -10 7 0 -9 15 29 13 53 -2 10
-6 12 -5 7 2 -10 16 36 16 53 0 11 -11 12 -10 7 0 -9 15 29 13 53 -2 10 -6 12
-5 7 2 -5 8 14 11 64 11 43 -1 68 -5 64 -11 -3 -5 3 -4 15 4 17 11 25 11 42 0
12 -8 18 -9 14 -3 -9 15 18 14 34 -1 11 -10 13 -10 7 0 -4 7 -2 12 6 12 8 0
20 -6 27 -12 11 -10 13 -10 7 0 -4 7 -2 12 6 12 8 0 20 -6 27 -12 11 -11 12
-10 7 0 -9 15 29 13 53 -2 10 -6 12 -5 7 3 -9 14 30 11 53 -3 10 -6 12 -5 7 2
-10 16 36 16 53 0 11 -11 12 -10 7 0 -9 15 29 13 53 -2 10 -6 12 -5 7 2 -10
16 36 16 53 -1 8 -6 11 -7 8 -1 -9 15 173 17 192 1 12 -10 13 -9 7 1 -6 9 -1
12 16 10 12 -2 29 -7 37 -12 10 -6 12 -5 7 2 -10 16 36 16 53 0 11 -11 12 -10
7 0 -9 15 29 13 53 -2 10 -6 12 -5 7 2 -10 16 36 16 53 -1 11 -10 12 -9 7 1
-9 15 29 13 53 -2 10 -6 12 -5 7 2 -10 16 36 16 53 0 11 -11 12 -10 7 0 -9 15
29 13 53 -2 10 -6 12 -5 7 2 -10 16 36 16 53 0 11 -11 12 -10 7 0 -9 15 29 13
53 -2 9 -6 12 -5 8 1 -4 6 14 11 44 12 38 1 49 -2 43 -11 -6 -10 -4 -11 7 0
17 16 61 16 78 0 11 -11 12 -10 7 0 -9 15 29 13 53 -2 10 -6 12 -5 7 2 -10 17
76 16 93 0 11 -11 12 -10 7 0 -9 15 29 13 53 -2 10 -6 12 -5 7 2 -10 16 36 16
53 0 11 -11 12 -10 7 0 -9 15 29 13 53 -2 10 -6 12 -5 7 2 -10 16 36 16 53 -1
11 -9 13 -9 7 1 -5 8 0 12 14 12 14 0 19 -4 14 -12 -6 -10 -4 -10 7 -1 17 17
61 17 78 1 11 -11 12 -10 7 0 -9 15 29 13 53 -2 10 -6 12 -5 7 2 -10 16 36 16
53 0 11 -11 12 -10 7 0 -9 15 29 13 53 -2 10 -6 12 -5 7 2 -10 16 36 16 53 0
11 -11 12 -10 7 0 -9 15 29 13 53 -2 10 -6 12 -5 7 2 -10 16 36 16 53 0 11
-11 12 -10 7 0 -9 15 29 13 53 -2 10 -6 12 -5 7 2 -10 16 36 16 53 0 11 -10
12 -10 7 -1 -8 14 50 13 73 -1 10 -6 12 -5 7 3 -9 14 30 11 53 -3 9 -6 12 -5
8 1 -4 6 14 11 44 12 38 1 49 -2 43 -11 -6 -10 -4 -11 7 0 17 16 61 16 78 0 9
-8 11 -8 8 -2 -5 8 6 12 32 11 22 -1 37 -5 34 -10 -3 -5 4 -3 16 5 17 11 25
11 42 0 12 -8 18 -9 14 -3 -9 15 18 14 34 -2 11 -9 13 -9 7 1 -9 16 16 16 33
0 11 -11 13 -10 7 0 -9 16 16 16 33 -1 11 -9 13 -9 7 1 -9 16 16 16 33 0 11
-10 13 -10 7 0 -9 16 16 16 33 -1 11 -9 13 -9 7 1 -4 7 -2 12 6 12 8 0 20 -6
27 -12 11 -11 13 -10 7 0 -10 16 35 16 53 0 11 -11 12 -10 7 0 -9 15 29 13 53
-2 10 -6 12 -5 7 2 -10 16 36 16 53 0 11 -11 12 -10 7 0 -9 15 29 13 53 -2 10
-6 12 -5 7 2 -10 16 36 16 53 0 11 -11 12 -10 7 0 -9 15 29 13 53 -2 10 -6 12
-5 7 2 -10 16 36 16 53 0 11 -11 12 -10 7 0 -9 15 29 13 53 -2 10 -6 12 -5 7
2 -10 16 36 16 53 0 11 -11 12 -10 7 0 -9 15 29 13 53 -2 10 -6 12 -5 7 2 -10
17 56 16 73 -1 11 -9 13 -9 7 1 -4 7 -2 12 6 12 8 0 20 -6 27 -12 9 -8 11 -9
7 -1 -4 8 9 11 44 11 32 1 48 -3 44 -9 -3 -6 3 -5 15 3 17 11 25 11 42 0 12
-8 18 -9 14 -3 -9 15 18 14 34 -1 11 -11 12 -10 7 0 -9 15 29 13 53 -2 10 -6
12 -5 7 3 -9 14 30 11 53 -3 10 -6 12 -5 7 2 -10 16 36 16 53 0 11 -11 12 -10
7 0 -9 15 29 13 53 -2 9 -6 12 -5 8 1 -4 6 14 11 44 12 38 1 49 -2 43 -11 -6
-10 -5 -10 7 -2 16 13 77 13 98 0 10 -6 12 -6 7 2 -10 16 36 16 53 -1 11 -10
12 -9 7 1 -9 15 29 13 53 -2 10 -6 12 -5 7 2 -10 16 36 16 53 0 11 -11 12 -10
7 0 -9 15 29 13 53 -2 10 -6 12 -5 7 2 -10 16 36 16 53 0 11 -11 12 -10 7 0
-9 15 29 13 53 -2 10 -6 12 -5 7 2 -10 16 36 16 53 -1 11 -10 12 -9 7 1 -9 15
29 13 53 -2 10 -6 12 -5 7 2 -10 16 36 16 53 0 11 -11 13 -10 7 0 -5 8 0 12
14 12 14 0 19 -4 14 -12 -6 -10 -4 -10 8 0 18 15 116 13 137 -2 11 -8 13 -8 7
2 -5 8 0 12 16 12 13 0 30 -6 37 -12 11 -11 12 -10 7 0 -9 15 29 13 53 -2 10
-6 12 -5 7 2 -10 17 76 16 93 -1 11 -10 12 -9 7 1 -9 15 29 13 53 -2 10 -6 12
-5 7 2 -10 16 36 16 53 0 11 -11 12 -10 7 0 -9 15 29 13 53 -2 9 -6 12 -5 7 2
-8 14 94 13 113 -2 11 -8 13 -8 7 2 -10 16 35 16 53 -1 11 -10 12 -9 7 1 -9
15 29 13 53 -2 10 -6 12 -5 7 2 -10 16 36 16 53 0 11 -11 12 -10 7 0 -9 15 29
13 53 -2 10 -6 12 -5 7 2 -10 16 36 16 53 0 11 -11 12 -10 7 0 -9 15 29 13 53
-2 10 -6 12 -5 7 2 -10 16 36 16 53 0 11 -11 12 -10 7 0 -9 15 29 13 53 -2 10
-6 12 -5 7 2 -10 16 36 16 53 0 11 -10 12 -10 7 -1 -8 14 50 13 73 -1 10 -6
12 -5 7 3 -9 14 30 11 53 -3 9 -6 12 -5 8 1 -9 15 153 15 172 0 12 -10 13 -9
7 1 -6 9 -1 12 16 10 12 -2 29 -7 37 -12 10 -6 12 -5 7 2 -10 16 16 15 33 0
11 -10 13 -10 7 0 -5 8 2 12 24 12 20 0 29 -4 25 -11 -4 -6 2 -5 14 3 17 11
25 11 42 0 12 -8 18 -9 14 -3 -9 15 18 14 34 -1 11 -10 13 -10 7 0 -9 16 16
16 33 -1 11 -9 13 -9 7 1 -4 7 -2 12 6 12 8 0 20 -6 27 -12 11 -10 13 -10 7 0
-9 16 16 16 33 -1 11 -9 13 -9 7 1 -10 16 35 16 53 0 11 -11 12 -10 7 0 -9 15
29 13 53 -2 10 -6 12 -5 7 2 -10 16 36 16 53 0 11 -11 12 -10 7 0 -9 15 29 13
53 -2 10 -6 12 -5 7 2 -10 16 36 16 53 0 11 -11 12 -10 7 0 -9 15 29 13 53 -2
10 -6 12 -5 7 2 -10 16 36 16 53 0 11 -11 12 -10 7 0 -9 15 29 13 53 -2 10 -6
12 -5 7 2 -10 16 36 16 53 0 11 -11 12 -10 7 0 -9 15 29 13 53 -2 10 -6 12 -5
7 2 -5 8 14 11 64 11 43 -1 68 -5 64 -11 -3 -5 3 -4 15 4 17 11 25 11 42 0 12
-8 18 -9 14 -3 -9 15 18 14 34 -1 11 -10 13 -10 7 0 -9 16 16 16 33 -1 11 -9
13 -9 7 1 -4 7 -2 12 6 12 8 0 20 -6 27 -12 11 -11 12 -10 7 0 -9 15 29 13 53
-2 10 -6 12 -5 7 3 -9 14 30 11 53 -3 10 -6 12 -5 7 2 -10 16 36 16 53 -1 11
-10 12 -9 7 1 -9 15 29 13 53 -2 10 -6 12 -5 7 2 -10 16 36 16 53 0 8 -7 11
-8 8 -2 -9 15 173 17 192 1 12 -10 13 -9 7 1 -6 9 -1 12 16 10 12 -2 29 -7 37
-12 10 -6 12 -5 7 2 -10 16 36 16 53 -1 11 -10 12 -9 7 1 -9 15 29 13 53 -2
10 -6 12 -5 7 2 -10 16 16 15 33 0 11 -10 13 -10 7 0 -4 7 -2 12 6 12 8 0 20
-6 27 -12 11 -11 13 -10 7 0 -9 16 16 16 33 0 8 -8 11 -8 8 -2 -5 8 7 12 33
12 28 1 38 -3 34 -11 -5 -8 -3 -8 7 1 16 15 63 16 54 1 -4 -6 2 -5 14 3 17 11
25 11 42 0 12 -8 18 -9 14 -3 -9 15 38 14 54 -1 11 -11 12 -10 7 0 -9 15 29
13 53 -2 10 -6 12 -5 7 2 -10 16 36 16 53 0 11 -11 12 -10 7 0 -9 15 29 13 53
-2 10 -6 12 -5 7 2 -10 16 36 16 53 0 11 -11 12 -10 7 0 -9 15 29 13 53 -2 10
-6 12 -5 7 2 -10 16 36 16 53 -1 11 -10 12 -9 7 1 -9 15 29 13 53 -2 9 -6 12
-5 8 1 -4 6 14 11 44 12 38 1 49 -2 43 -11 -6 -10 -4 -11 7 0 17 16 81 16 98
-1 11 -9 13 -9 7 1 -9 16 16 16 33 -1 11 -9 13 -9 7 1 -9 16 16 16 33 -1 11
-9 13 -9 7 1 -4 7 -2 12 6 12 8 0 20 -6 27 -12 11 -10 13 -10 7 0 -9 16 16 16
33 -1 11 -9 13 -9 7 1 -9 16 16 16 33 -1 11 -9 13 -9 7 1 -9 16 16 16 33 -1
11 -9 13 -9 7 1 -4 7 -2 12 6 12 8 0 20 -6 27 -12 11 -11 13 -10 7 0 -9 16 16
16 33 -1 11 -9 13 -9 7 1 -9 16 16 16 33 -1 11 -9 13 -9 7 1 -9 16 16 16 33
-1 11 -9 13 -9 7 1 -9 16 16 16 33 -1 11 -9 13 -9 7 1 -9 16 16 16 33 -1 11
-9 13 -9 7 1 -9 16 16 16 33 -1 11 -9 13 -9 7 1 -9 16 16 16 33 -1 11 -9 13
-9 7 1 -9 16 16 16 33 -1 11 -9 13 -9 7 1 -10 16 35 16 53 -1 11 -10 12 -9 7
1 -9 15 29 13 53 -2 10 -6 12 -5 7 2 -10 16 36 16 53 -1 11 -10 12 -9 7 1 -9
15 29 13 53 -2 10 -6 12 -5 7 2 -10 16 36 16 53 -1 11 -10 12 -9 7 1 -9 15 29
13 53 -2 10 -6 12 -5 7 2 -10 16 36 16 53 -1 11 -10 12 -9 7 1 -9 15 29 13 53
-2 10 -6 12 -5 7 2 -10 16 36 16 53 -1 11 -10 12 -9 7 1 -9 15 29 13 53 -2 10
-6 12 -5 7 2 -10 17 56 16 73 -1 11 -9 13 -9 7 1 -9 16 16 16 33 -1 11 -9 13
-9 7 1 -9 16 16 16 33 -1 11 -9 13 -9 7 1 -9 16 16 16 33 -1 9 -7 11 -8 7 0
-4 8 9 11 44 11 32 1 48 -3 44 -9 -3 -6 3 -5 15 3 17 11 25 11 42 0 12 -8 18
-9 14 -3 -9 15 18 14 34 -2 11 -9 13 -9 7 1 -9 16 16 16 33 -1 11 -9 13 -9 7
1 -9 16 16 16 33 -1 11 -9 13 -9 7 1 -9 16 16 16 33 -1 11 -9 13 -9 7 1 -9 16
16 16 33 -1 11 -9 13 -9 7 1 -9 16 16 16 33 -1 11 -9 13 -9 7 1 -9 16 16 16
33 -1 11 -9 13 -9 7 1 -9 16 16 16 33 -1 11 -9 13 -9 7 1 -10 16 35 16 53 -1
11 -10 12 -9 7 1 -9 15 29 13 53 -2 9 -6 12 -5 8 1 -10 15 153 15 172 0 9 -8
12 -8 8 -1 -9 16 92 17 112 1 12 -10 13 -9 7 1 -6 9 -1 12 16 10 12 -2 29 -7
37 -12 10 -6 12 -5 7 2 -10 16 36 16 53 -1 11 -10 12 -9 7 1 -9 15 29 13 53
-2 10 -6 12 -5 7 2 -5 8 3 12 24 12 20 0 29 -4 25 -11 -4 -6 2 -5 14 3 17 11
25 11 42 0 12 -8 18 -9 14 -3 -9 15 18 14 34 -2 11 -9 13 -9 7 1 -9 16 16 16
33 -1 11 -9 13 -9 7 1 -9 16 16 16 33 -1 11 -9 13 -9 7 1 -9 16 16 16 33 -1
11 -9 13 -9 7 1 -9 16 16 16 33 -1 11 -9 13 -9 7 1 -9 16 16 16 33 -1 11 -9
13 -9 7 1 -9 16 16 16 33 -1 11 -9 13 -9 7 1 -9 16 16 16 33 -1 11 -9 13 -9 7
1 -9 16 16 16 33 -1 8 -7 11 -7 8 -1 -5 8 7 12 33 12 28 1 38 -3 34 -11 -5 -8
-3 -8 7 0 16 16 63 17 54 2 -4 -6 2 -5 14 3 17 11 25 11 42 0 12 -8 18 -9 14
-3 -9 15 38 14 54 -2 11 -10 12 -9 7 1 -9 15 29 13 53 -2 10 -6 12 -5 7 2 -10
16 36 16 53 -1 11 -10 12 -9 7 1 -9 15 29 13 53 -2 10 -6 12 -5 7 2 -10 16 36
16 53 -1 11 -10 12 -9 7 1 -9 15 29 13 53 -2 10 -6 12 -5 7 2 -10 16 36 16 53
-1 11 -10 12 -9 7 1 -9 15 29 13 53 -2 9 -6 12 -5 8 1 -4 6 14 11 44 12 38 1
49 -2 43 -11 -6 -10 -4 -11 7 -1 17 17 81 17 98 0 11 -9 13 -9 7 1 -9 16 16
16 33 -1 11 -9 13 -9 7 1 -9 16 16 16 33 -1 11 -9 13 -9 7 1 -9 16 16 16 33
-1 11 -9 13 -9 7 1 -9 16 16 16 33 -1 11 -9 13 -9 7 1 -9 16 16 16 33 -1 11
-9 13 -9 7 1 -9 16 16 16 33 -1 8 -6 11 -7 8 -1 -5 8 10 12 44 13 37 0 48 -2
43 -12 -6 -9 -4 -9 8 1 18 15 116 13 137 -2 11 -8 13 -8 7 2 -10 16 35 16 53
-1 11 -9 12 -9 7 0 -8 14 50 13 73 -1 10 -6 12 -5 7 3 -9 14 30 11 53 -3 10
-6 12 -5 7 2 -10 16 36 16 53 -1 11 -10 12 -9 7 1 -9 15 29 13 53 -2 10 -6 12
-5 7 2 -10 16 36 16 53 -1 11 -10 12 -9 7 1 -9 15 29 13 53 -2 10 -6 12 -5 7
2 -10 16 16 15 33 -1 11 -9 13 -9 7 1 -9 16 16 16 33 -1 11 -9 13 -9 7 1 -9
16 16 16 33 -1 11 -9 13 -9 7 1 -9 16 16 16 33 -1 11 -9 13 -9 7 1 -9 16 16
16 33 -1 11 -9 13 -9 7 1 -9 16 16 16 33 -1 11 -9 13 -9 7 1 -9 16 16 16 33
-1 11 -9 13 -9 7 1 -9 16 16 16 33 -1 11 -9 13 -9 7 1 -10 16 35 16 53 -1 11
-10 12 -9 7 1 -9 15 29 13 53 -2 9 -6 12 -5 8 1 -10 15 153 15 172 0 12 -10
13 -9 7 1 -6 9 -1 12 16 10 12 -2 29 -7 37 -12 10 -6 12 -5 7 2 -10 16 36 16
53 -1 11 -10 12 -9 7 1 -9 15 29 13 53 -2 9 -6 12 -5 8 1 -4 6 14 11 44 12 38
1 49 -2 43 -11 -6 -10 -4 -11 7 0 17 16 81 16 98 -1 11 -9 13 -9 7 1 -9 16 16
16 33 -1 11 -9 13 -9 7 1 -9 16 16 16 33 -1 11 -9 13 -9 7 1 -9 16 16 16 33
-1 11 -9 13 -9 7 1 -9 16 16 16 33 -1 11 -9 13 -9 7 1 -9 16 16 16 33 -1 11
-9 13 -9 7 1 -9 16 16 16 33 -1 11 -10 12 -9 7 1 -9 15 29 13 53 -2 10 -6 12
-5 7 3 -9 14 30 11 53 -3 10 -6 12 -5 7 2 -10 16 36 16 53 -1 11 -10 12 -9 7
1 -9 15 29 13 53 -2 10 -6 12 -5 7 2 -10 16 36 16 53 -1 11 -9 12 -9 7 0 -8
14 50 13 73 -1 10 -6 12 -5 7 3 -9 14 30 11 53 -3 10 -6 12 -5 7 2 -10 16 36
16 53 -1 11 -10 12 -9 7 1 -9 15 29 13 53 -2 10 -6 12 -5 7 2 -10 16 36 16 53
-1 10 -8 12 -8 7 0 -8 15 33 14 53 -1 11 -8 13 -8 8 0 -4 7 11 11 44 13 38 1
49 -2 43 -11 -6 -10 -4 -11 7 -1 17 17 61 17 78 0 11 -10 12 -9 7 1 -9 15 29
13 53 -2 10 -6 12 -5 7 2 -10 16 36 16 53 -1 11 -10 12 -9 7 1 -9 15 29 13 53
-2 10 -6 12 -5 7 2 -10 16 36 16 53 -1 11 -10 12 -9 7 1 -9 15 29 13 53 -2 10
-6 12 -5 7 2 -10 16 36 16 53 -1 11 -10 12 -9 7 1 -9 15 29 13 53 -2 10 -6 12
-5 7 2 -10 17 76 16 93 -1 11 -10 12 -9 7 1 -9 15 29 13 53 -2 10 -6 12 -5 7
2 -10 16 36 16 53 -1 11 -10 12 -9 7 1 -9 15 29 13 53 -2 10 -6 12 -5 7 2 -10
16 36 16 53 -1 11 -10 12 -9 7 1 -9 15 29 13 53 -2 10 -6 12 -5 7 2 -10 16 36
16 53 -1 11 -10 12 -9 7 1 -9 15 29 13 53 -2 9 -6 12 -5 8 1 -4 6 14 11 44 12
38 1 49 -2 43 -11 -6 -11 -5 -11 8 0 18 15 116 13 137 -2 11 -8 13 -8 7 2 -10
16 35 16 53 -1 11 -10 12 -9 7 1 -9 15 29 13 53 -2 10 -6 12 -5 7 2 -10 16 36
16 53 -1 11 -9 12 -9 7 0 -8 14 50 13 73 -1 10 -6 12 -5 7 3 -9 14 30 11 53
-3 10 -6 12 -5 7 2 -10 16 36 16 53 -1 11 -10 12 -9 7 1 -9 15 29 13 53 -2 10
-6 12 -5 7 2 -10 16 36 16 53 -1 11 -10 12 -9 7 1 -9 15 29 13 53 -2 10 -6 12
-5 7 2 -10 16 16 15 33 -1 11 -9 13 -9 7 1 -9 16 16 16 33 -1 11 -9 13 -9 7 1
-9 16 16 16 33 -1 11 -9 13 -9 7 1 -9 16 16 16 33 -1 11 -9 13 -9 7 1 -9 16
16 16 33 -1 11 -9 13 -9 7 1 -9 16 16 16 33 -1 11 -9 13 -9 7 1 -9 16 16 16
33 -1 11 -9 13 -9 7 1 -9 16 16 16 33 -1 8 -6 11 -7 8 -1 -4 7 11 11 44 13 38
1 49 -2 43 -11 -6 -10 -4 -11 7 -1 17 17 61 17 78 0 11 -10 12 -9 7 1 -9 15
29 13 53 -2 10 -6 12 -5 7 2 -10 16 36 16 53 -1 11 -10 12 -9 7 1 -9 15 29 13
53 -2 9 -6 12 -5 8 1 -4 6 14 11 44 12 38 1 49 -2 43 -11 -6 -11 -5 -11 8 0
18 15 116 13 137 -2 11 -8 13 -8 7 2 -10 17 55 17 73 -1 11 -9 13 -9 7 1 -9
16 16 16 33 -1 11 -9 13 -9 7 1 -9 16 16 16 33 -1 11 -9 13 -9 7 1 -9 16 16
16 33 -1 11 -9 13 -9 7 1 -9 16 16 16 33 -1 11 -9 13 -9 7 1 -9 16 16 16 33
-1 11 -9 13 -9 7 1 -9 16 16 16 33 -1 11 -10 12 -9 7 1 -9 15 29 13 53 -2 10
-6 12 -5 7 3 -9 14 30 11 53 -3 10 -6 12 -5 7 2 -10 16 36 16 53 -1 11 -10 12
-9 7 1 -9 15 29 13 53 -2 10 -6 12 -5 7 2 -10 16 36 16 53 -1 11 -9 12 -9 7 0
-8 14 50 13 73 -1 10 -6 12 -5 7 3 -9 14 30 11 53 -3 10 -6 12 -5 7 2 -10 16
36 16 53 -1 11 -10 12 -9 7 1 -9 15 29 13 53 -2 9 -6 12 -5 8 1 -4 6 14 11 44
12 38 1 49 -2 43 -11 -6 -10 -4 -11 7 0 17 16 61 16 78 -1 11 -10 12 -9 7 1
-9 15 29 13 53 -2 10 -6 12 -5 7 2 -10 16 36 16 53 -1 11 -10 12 -9 7 1 -9 15
29 13 53 -2 10 -6 12 -5 7 2 -10 16 36 16 53 -1 11 -10 12 -9 7 1 -9 15 29 13
53 -2 10 -6 12 -5 7 2 -10 16 36 16 53 -1 11 -10 12 -9 7 1 -9 15 29 13 53 -2
9 -6 12 -5 8 1 -4 6 14 11 44 12 38 1 49 -2 43 -11 -6 -10 -4 -11 7 -1 7 7 34
13 59 13 25 0 52 -6 59 -13 11 -10 12 -9 7 1 -9 15 29 13 53 -2 10 -6 12 -5 7
2 -10 16 36 16 53 -1 11 -10 12 -9 7 1 -9 15 29 13 53 -2 10 -6 12 -5 7 2 -10
16 36 16 53 -1 11 -10 12 -9 7 1 -9 15 29 13 53 -2 9 -6 12 -5 8 1 -4 6 14 11
44 12 38 1 49 -2 43 -11 -6 -10 -4 -11 7 -1 7 7 25 13 39 13 14 0 32 -6 39
-13 11 -10 12 -9 7 1 -9 15 29 13 53 -2 10 -6 12 -5 7 2 -10 16 36 16 53 0 11
-11 12 -10 7 0 -9 15 29 13 53 -2 10 -6 12 -5 7 2 -10 16 36 16 53 0 11 -11
12 -10 7 0 -9 15 29 13 53 -2 10 -6 12 -5 7 2 -10 16 36 16 53 -1 11 -9 12 -9
7 0 -8 14 50 13 73 -1 10 -6 12 -5 7 3 -9 14 30 11 53 -3 10 -6 12 -5 7 2 -10
16 36 16 53 -1 11 -10 12 -9 7 1 -9 15 29 13 53 -2 9 -6 12 -5 8 1 -4 6 14 11
44 12 34 1 48 -2 44 -10 -4 -6 2 -5 14 3 17 11 25 11 42 0 12 -8 18 -9 14 -3
-9 15 18 14 34 -2 11 -9 13 -9 7 1 -9 16 16 16 33 -1 11 -9 13 -9 7 1 -9 16
16 16 33 -1 11 -9 13 -9 7 1 -9 16 16 16 33 -1 11 -9 13 -9 7 1 -9 16 16 16
33 -1 11 -9 13 -9 7 1 -9 16 16 16 33 -1 8 -7 11 -7 8 -1 -9 16 73 16 92 1 12
-10 13 -9 7 1 -6 9 -1 12 16 10 12 -2 29 -7 37 -12 10 -6 12 -5 7 2 -10 16 36
16 53 -1 11 -10 12 -9 7 1 -9 15 29 13 53 -2 10 -6 12 -5 7 2 -10 16 36 16 53
-1 11 -9 13 -9 7 1 -5 8 0 12 14 12 14 0 19 -4 14 -12 -6 -10 -4 -10 8 0 18
15 116 13 137 -2 11 -8 13 -8 7 2 -10 16 35 16 53 -1 11 -10 12 -9 7 1 -9 15
29 13 53 -2 10 -6 12 -5 7 2 -5 8 3 12 24 12 20 0 29 -4 25 -11 -4 -6 2 -5 14
3 17 11 25 11 42 0 12 -8 18 -9 14 -3 -9 15 18 14 34 -2 11 -9 13 -9 7 1 -9
16 16 16 33 -1 11 -9 13 -9 7 1 -9 16 16 16 33 -1 11 -9 13 -9 7 1 -9 16 16
16 33 -1 11 -9 13 -9 7 1 -9 16 16 16 33 -1 11 -10 12 -9 7 1 -9 15 29 13 53
-2 10 -6 12 -5 7 3 -9 14 30 11 53 -3 10 -6 12 -5 7 2 -10 16 36 16 53 -1 11
-10 12 -9 7 1 -9 15 29 13 53 -2 10 -6 12 -5 7 2 -10 16 36 16 53 -1 11 -9 12
-9 7 0 -8 14 50 13 73 -1 10 -6 12 -5 7 3 -9 14 30 11 53 -3 9 -6 12 -5 8 1
-10 15 153 15 172 0 8 -7 12 -7 8 -1 -4 7 15 11 54 12 44 1 58 -2 52 -11 -5
-9 -2 -8 9 1 18 15 116 13 137 -2 11 -8 13 -8 7 2 -10 16 35 16 53 -1 11 -9
12 -9 7 0 -8 14 50 13 73 -1 10 -6 12 -5 7 3 -9 14 30 11 53 -3 10 -6 12 -5 7
2 -10 16 36 16 53 -1 11 -10 12 -9 7 1 -9 15 29 13 53 -2 10 -6 12 -5 7 2 -10
16 36 16 53 -1 11 -10 12 -9 7 1 -9 15 29 13 53 -2 10 -6 12 -5 7 2 -10 16 16
15 33 -1 11 -9 13 -9 7 1 -9 16 16 16 33 -1 11 -9 13 -9 7 1 -9 16 16 16 33
-1 11 -9 13 -9 7 1 -9 16 16 16 33 -1 11 -9 13 -9 7 1 -9 16 16 16 33 -1 11
-9 13 -9 7 1 -9 16 16 16 33 -1 11 -9 13 -9 7 1 -9 16 16 16 33 -1 11 -9 13
-9 7 1 -9 16 16 16 33 -1 11 -9 13 -9 7 1 -10 16 35 16 53 -1 11 -10 12 -9 7
1 -9 15 29 13 53 -2 9 -6 12 -5 8 1 -10 15 153 15 172 0 12 -10 13 -9 7 1 -6
9 -1 12 16 10 12 -2 29 -7 37 -12 10 -6 12 -5 7 2 -10 16 36 16 53 -1 11 -10
12 -9 7 1 -9 15 29 13 53 -2 9 -6 12 -5 8 1 -4 6 14 11 44 12 38 1 49 -2 43
-11 -6 -10 -4 -11 7 0 17 16 81 16 98 -1 11 -9 13 -9 7 1 -9 16 16 16 33 -1
11 -9 13 -9 7 1 -9 16 16 16 33 -1 11 -9 13 -9 7 1 -9 16 16 16 33 -1 11 -9
13 -9 7 1 -9 16 16 16 33 -1 11 -9 13 -9 7 1 -9 16 16 16 33 -1 11 -9 13 -9 7
1 -9 16 16 16 33 -1 11 -10 12 -9 7 1 -9 15 29 13 53 -2 10 -6 12 -5 7 3 -9
14 30 11 53 -3 10 -6 12 -5 7 2 -10 16 36 16 53 -1 11 -10 12 -9 7 1 -9 15 29
13 53 -2 10 -6 12 -5 7 2 -10 16 36 16 53 -1 11 -9 12 -9 7 0 -8 14 50 13 73
-1 10 -6 12 -5 7 3 -9 14 30 11 53 -3 10 -6 12 -5 7 2 -10 16 36 16 53 -1 11
-10 12 -9 7 1 -9 15 29 13 53 -2 10 -6 12 -5 7 2 -10 16 36 16 53 -1 10 -8 12
-8 7 0 -8 15 33 14 53 -1 11 -8 13 -8 8 0 -4 7 11 11 44 13 38 1 49 -2 43 -11
-6 -10 -4 -11 7 -1 7 7 25 13 39 13 14 0 32 -6 39 -13 11 -10 12 -9 7 1 -9 15
29 13 53 -2 10 -6 12 -5 7 2 -10 16 36 16 53 0 11 -11 12 -10 7 0 -9 15 29 13
53 -2 10 -6 12 -5 7 2 -10 16 36 16 53 -1 11 -10 12 -9 7 1 -9 15 29 13 53 -2
10 -6 12 -5 7 2 -10 16 36 16 53 -1 11 -10 12 -9 7 1 -9 15 29 13 53 -2 10 -6
12 -5 7 2 -10 17 76 16 93 -1 11 -10 12 -9 7 1 -9 15 29 13 53 -2 10 -6 12 -5
7 2 -10 16 36 16 53 -1 11 -10 12 -9 7 1 -9 15 29 13 53 -2 10 -6 12 -5 7 2
-10 16 36 16 53 -1 11 -10 12 -9 7 1 -9 15 29 13 53 -2 10 -6 12 -5 7 2 -10
16 36 16 53 -1 11 -10 12 -9 7 1 -9 15 29 13 53 -2 9 -6 12 -5 8 1 -4 6 14 11
44 12 38 1 49 -2 43 -11 -6 -11 -5 -11 8 0 18 15 116 13 137 -2 11 -8 13 -8 7
2 -10 16 35 16 53 -1 11 -10 12 -9 7 1 -9 15 29 13 53 -2 10 -6 12 -5 7 2 -10
16 36 16 53 -1 11 -9 12 -9 7 0 -8 14 50 13 73 -1 10 -6 12 -5 7 3 -9 14 30
11 53 -3 10 -6 12 -5 7 2 -10 16 36 16 53 -1 11 -10 12 -9 7 1 -9 15 29 13 53
-2 10 -6 12 -5 7 2 -10 16 36 16 53 -1 11 -10 12 -9 7 1 -9 15 29 13 53 -2 10
-6 12 -5 7 2 -10 16 16 15 33 -1 11 -9 13 -9 7 1 -9 16 16 16 33 -1 11 -9 13
-9 7 1 -9 16 16 16 33 -1 11 -9 13 -9 7 1 -9 16 16 16 33 -1 11 -9 13 -9 7 1
-9 16 16 16 33 -1 11 -9 13 -9 7 1 -9 16 16 16 33 -1 11 -9 13 -9 7 1 -9 16
16 16 33 -1 11 -9 13 -9 7 1 -9 16 16 16 33 -1 8 -6 11 -7 8 -1 -4 7 11 11 44
13 38 1 49 -2 43 -11 -6 -10 -4 -11 7 -1 7 7 25 13 39 13 14 0 32 -6 39 -13
11 -10 12 -9 7 1 -9 15 29 13 53 -2 10 -6 12 -5 7 2 -10 16 36 16 53 -1 11
-10 12 -9 7 1 -9 15 29 13 53 -2 9 -6 12 -5 8 1 -4 6 14 11 44 12 38 1 49 -2
43 -11 -6 -11 -5 -11 8 0 18 15 116 13 137 -2 11 -8 13 -8 7 2 -10 17 55 17
73 -1 11 -9 13 -9 7 1 -9 16 16 16 33 -1 11 -9 13 -9 7 1 -9 16 16 16 33 -1
11 -9 13 -9 7 1 -9 16 16 16 33 -1 11 -9 13 -9 7 1 -9 16 16 16 33 -1 11 -9
13 -9 7 1 -9 16 16 16 33 -1 11 -9 13 -9 7 1 -9 16 16 16 33 -1 11 -10 12 -9
7 1 -9 15 29 13 53 -2 10 -6 12 -5 7 3 -9 14 30 11 53 -3 10 -6 12 -5 7 2 -10
16 36 16 53 -1 11 -10 12 -9 7 1 -9 15 29 13 53 -2 10 -6 12 -5 7 2 -10 16 36
16 53 -1 11 -9 12 -9 7 0 -8 14 50 13 73 -1 10 -6 12 -5 7 3 -9 14 30 11 53
-3 10 -6 12 -5 7 2 -10 16 36 16 53 -1 11 -10 12 -9 7 1 -9 15 29 13 53 -2 9
-6 12 -5 8 1 -10 15 153 15 172 0 12 -10 13 -9 7 1 -6 9 -1 12 16 10 12 -2 29
-7 37 -12 10 -6 12 -5 7 2 -10 16 36 16 53 -1 11 -10 12 -9 7 1 -9 15 29 13
53 -2 10 -6 12 -5 7 2 -10 16 36 16 53 -1 11 -10 12 -9 7 1 -9 15 29 13 53 -2
10 -6 12 -5 7 2 -10 16 36 16 53 0 11 -11 12 -10 7 0 -9 15 29 13 53 -2 9 -6
12 -5 8 1 -4 6 14 11 44 12 38 1 49 -2 43 -11 -6 -10 -4 -11 7 -1 17 17 101
17 118 1 11 -11 12 -10 7 0 -9 15 29 13 53 -2 10 -6 12 -5 7 2 -10 16 36 16
53 -1 11 -10 12 -9 7 1 -9 15 29 13 53 -2 10 -6 12 -5 7 2 -10 16 36 16 53 -1
11 -10 12 -9 7 1 -9 15 29 13 53 -2 9 -6 12 -5 8 1 -4 6 14 11 44 12 38 1 49
-2 43 -11 -6 -10 -4 -11 7 -1 7 7 25 13 39 13 14 0 32 -6 39 -13 11 -10 12 -9
7 1 -9 15 29 13 53 -2 10 -6 12 -5 7 2 -10 16 36 16 53 0 11 -11 12 -10 7 0
-9 15 29 13 53 -2 10 -6 12 -5 7 2 -10 16 36 16 53 0 11 -11 12 -10 7 0 -9 15
29 13 53 -2 10 -6 12 -5 7 2 -10 16 36 16 53 -1 11 -9 12 -9 7 0 -8 14 50 13
73 -1 10 -6 12 -5 7 3 -9 14 30 11 53 -3 10 -6 12 -5 7 2 -10 16 36 16 53 -1
11 -10 12 -9 7 1 -9 15 29 13 53 -2 9 -6 12 -5 8 1 -4 6 14 11 44 12 34 1 48
-2 44 -10 -4 -6 2 -5 14 3 17 11 25 11 42 0 12 -8 18 -9 14 -3 -9 15 18 14 34
-2 11 -9 13 -9 7 1 -9 16 16 16 33 -1 11 -9 13 -9 7 1 -4 7 -2 12 6 12 8 0 20
-6 27 -12 11 -10 13 -10 7 0 -4 7 -2 12 6 12 8 0 20 -6 27 -12 11 -10 13 -10
7 0 -9 16 16 16 33 -1 11 -9 13 -9 7 1 -9 16 16 16 33 -1 8 -7 11 -7 8 -1 -9
16 73 16 92 1 12 -10 13 -9 7 1 -6 9 -1 12 16 10 12 -2 29 -7 37 -12 10 -6 12
-5 7 2 -10 16 36 16 53 -1 11 -10 12 -9 7 1 -9 15 29 13 53 -2 10 -6 12 -5 7
2 -10 16 36 16 53 -1 11 -9 13 -9 7 1 -5 8 0 12 14 12 14 0 19 -4 14 -12 -6
-10 -4 -10 8 0 18 15 116 13 137 -2 11 -8 13 -8 7 2 -10 16 35 16 53 -1 11
-10 12 -9 7 1 -9 15 29 13 53 -2 10 -6 12 -5 7 2 -5 8 3 12 24 12 20 0 29 -4
25 -11 -4 -6 2 -5 14 3 17 11 25 11 42 0 12 -8 18 -9 14 -3 -9 15 18 14 34 -2
11 -9 13 -9 7 1 -9 16 16 16 33 -1 11 -9 13 -9 7 1 -9 16 16 16 33 -1 11 -9
13 -9 7 1 -9 16 16 16 33 -1 11 -9 13 -9 7 1 -9 16 16 16 33 -1 11 -10 12 -9
7 1 -9 15 29 13 53 -2 10 -6 12 -5 7 3 -9 14 30 11 53 -3 10 -6 12 -5 7 2 -10
16 36 16 53 0 11 -11 12 -10 7 0 -9 15 29 13 53 -2 10 -6 12 -5 7 2 -10 16 36
16 53 -1 11 -9 12 -9 7 0 -8 14 50 13 73 -1 10 -6 12 -5 7 3 -9 14 30 11 53
-3 9 -6 12 -5 8 1 -10 15 153 15 172 0 12 -10 13 -9 7 1 -6 9 -1 12 16 10 12
-2 29 -7 37 -12 10 -6 12 -5 7 2 -10 16 16 15 33 -1 11 -9 13 -9 7 1 -9 16 16
16 33 -1 11 -9 13 -9 7 1 -9 16 16 16 33 -1 11 -9 13 -9 7 1 -9 16 16 16 33
-1 11 -9 13 -9 7 1 -9 16 16 16 33 -1 11 -9 13 -9 7 1 -9 16 16 16 33 -1 11
-9 13 -9 7 1 -9 16 16 16 33 -1 11 -9 13 -9 7 1 -4 7 -2 12 6 12 8 0 20 -6 27
-12 11 -10 13 -10 7 0 -10 16 35 16 53 -1 11 -10 12 -9 7 1 -9 15 29 13 53 -2
10 -6 12 -5 7 2 -10 16 36 16 53 -1 11 -10 12 -9 7 1 -9 15 29 13 53 -2 10 -6
12 -5 7 2 -10 16 36 16 53 -1 11 -10 12 -9 7 1 -9 15 29 13 53 -2 10 -6 12 -5
7 2 -10 16 36 16 53 -1 11 -10 12 -9 7 1 -9 15 29 13 53 -2 10 -6 12 -5 7 2
-10 16 36 16 53 -1 11 -10 12 -9 7 1 -9 15 29 13 53 -2 10 -6 12 -5 7 2 -10
17 56 16 73 -1 11 -9 13 -9 7 1 -9 16 16 16 33 0 11 -10 13 -10 7 0 -9 16 16
16 33 -1 11 -9 13 -9 7 1 -9 16 16 16 33 -1 9 -7 11 -8 7 0 -4 8 9 11 44 11
32 1 48 -3 44 -9 -3 -6 3 -5 15 3 17 11 25 11 42 0 12 -8 18 -9 14 -3 -9 15
18 14 34 -1 11 -10 13 -10 7 0 -4 7 -2 12 6 12 8 0 20 -6 27 -12 11 -10 13
-10 7 0 -4 7 -2 12 6 12 8 0 20 -6 27 -12 11 -10 13 -10 7 0 -4 7 -2 12 6 12
8 0 20 -6 27 -12 11 -10 13 -10 7 0 -4 7 -2 12 6 12 8 0 20 -6 27 -12 11 -10
13 -10 7 0 -4 7 -2 12 6 12 8 0 20 -6 27 -12 11 -10 13 -10 7 0 -4 7 -2 12 6
12 8 0 20 -6 27 -12 11 -10 13 -10 7 0 -4 7 -2 12 6 12 8 0 20 -6 27 -12 11
-10 13 -10 7 0 -5 8 0 12 16 12 13 0 30 -6 37 -12 11 -11 12 -10 7 0 -9 15 29
13 53 -2 9 -6 12 -5 8 1 -10 15 153 15 172 0 9 -8 12 -8 8 -1 -9 16 92 17 112
1 12 -10 13 -9 7 1 -6 9 -1 12 16 10 12 -2 29 -7 37 -12 10 -6 12 -5 7 2 -10
16 36 16 53 0 11 -11 12 -10 7 0 -9 15 29 13 53 -2 10 -6 12 -5 7 2 -5 8 3 12
24 12 20 0 29 -4 25 -11 -4 -6 2 -5 14 3 17 11 25 11 42 0 12 -8 18 -9 14 -3
-9 15 18 14 34 -1 11 -11 13 -10 7 0 -9 16 16 16 33 0 11 -11 13 -10 7 0 -9
16 16 16 33 0 11 -10 13 -10 7 0 -4 7 -2 12 6 12 8 0 20 -6 27 -12 11 -10 13
-10 7 0 -4 7 -2 12 6 12 8 0 20 -6 27 -12 11 -10 13 -10 7 0 -4 7 -2 12 6 12
8 0 20 -6 27 -12 11 -10 13 -10 7 0 -4 7 -2 12 6 12 8 0 20 -6 27 -12 11 -10
13 -10 7 0 -4 7 -2 12 6 12 8 0 20 -6 27 -12 11 -10 13 -10 7 0 -4 7 -2 12 6
12 8 0 20 -6 27 -12 8 -8 11 -8 8 -2 -5 8 7 12 33 12 28 1 38 -3 34 -11 -5 -8
-3 -8 7 1 16 15 63 16 54 1 -4 -6 2 -5 14 3 17 11 25 11 42 0 12 -8 18 -9 14
-3 -9 15 38 14 54 -1 11 -11 12 -10 7 0 -9 15 29 13 53 -2 10 -6 12 -5 7 2
-10 16 36 16 53 0 11 -11 12 -10 7 0 -9 15 29 13 53 -2 10 -6 12 -5 7 2 -10
16 36 16 53 0 11 -11 12 -10 7 0 -9 15 29 13 53 -2 10 -6 12 -5 7 2 -10 16 36
16 53 0 11 -11 12 -10 7 0 -9 15 29 13 53 -2 9 -6 12 -5 8 1 -4 6 14 11 44 12
38 1 49 -2 43 -11 -6 -10 -4 -11 7 -1 17 17 81 17 98 1 11 -10 13 -10 7 0 -4
7 -2 12 6 12 8 0 20 -6 27 -12 11 -11 13 -10 7 0 -9 16 16 16 33 0 11 -10 13
-10 7 0 -4 7 -2 12 6 12 8 0 20 -6 27 -12 11 -10 13 -10 7 0 -4 7 -2 12 6 12
8 0 20 -6 27 -12 11 -10 13 -10 7 0 -4 7 -2 12 6 12 8 0 20 -6 27 -12 11 -10
13 -10 7 0 -4 7 -2 12 6 12 8 0 20 -6 27 -12 11 -10 13 -10 7 0 -4 7 -2 12 6
12 8 0 20 -6 27 -12 11 -10 13 -10 7 0 -4 7 -2 12 6 12 8 0 20 -6 27 -12 11
-10 13 -10 7 0 -4 7 -2 12 6 12 8 0 20 -6 27 -12 11 -10 13 -10 7 0 -4 7 -2
12 6 12 8 0 20 -6 27 -12 11 -10 13 -10 7 0 -4 7 -2 12 6 12 8 0 20 -6 27 -12
11 -10 13 -10 7 0 -4 7 -2 12 6 12 8 0 20 -6 27 -12 11 -10 13 -10 7 0 -4 7
-2 12 6 12 8 0 20 -6 27 -12 11 -10 13 -10 7 0 -4 7 -2 12 6 12 8 0 20 -6 27
-12 11 -10 13 -10 7 0 -4 7 -2 12 6 12 8 0 20 -6 27 -12 11 -10 13 -10 7 0 -5
8 0 12 16 12 13 0 30 -6 37 -12 11 -11 12 -10 7 0 -9 15 29 13 53 -2 10 -6 12
-5 7 2 -10 16 36 16 53 0 11 -11 12 -10 7 0 -9 15 29 13 53 -2 10 -6 12 -5 7
2 -10 16 36 16 53 0 11 -11 12 -10 7 0 -9 15 29 13 53 -2 10 -6 12 -5 7 2 -10
16 36 16 53 0 11 -11 12 -10 7 0 -9 15 29 13 53 -2 10 -6 12 -5 7 2 -10 16 36
16 53 0 11 -11 12 -10 7 0 -9 15 29 13 53 -2 10 -6 12 -5 7 2 -10 17 56 16 73
0 11 -10 13 -10 7 0 -4 7 -2 12 6 12 8 0 20 -6 27 -12 11 -10 13 -10 7 0 -4 7
-2 12 6 12 8 0 20 -6 27 -12 11 -10 13 -10 7 0 -4 7 -2 12 6 12 8 0 20 -6 27
-12 11 -10 13 -10 7 0 -4 7 -2 12 6 12 8 0 20 -6 27 -12 11 -10 13 -10 7 0 -5
8 2 12 24 12 22 0 29 -4 24 -12 -6 -10 -4 -10 8 0 17 14 53 13 77 -2 10 -6 12
-5 7 3 -9 14 30 11 53 -3 10 -7 12 -5 6 3 -9 16 93 13 114 -3 11 -8 13 -8 8 0
-4 7 8 11 34 12 26 1 38 -2 34 -9 -4 -6 2 -5 14 3 l21 13 0 28617 0 28618
-28000 0 -28000 0 0 -28620z"/>
</g>
</svg>
